<svg width="59" height="10" viewBox="0 0 59 10" fill="none" xmlns="http://www.w3.org/2000/svg">
<path d="M5.09785 0.419342C5.28126 0.0477196 5.81118 0.047719 5.99459 0.419342L7.19324 2.84808C7.26607 2.99565 7.40686 3.09793 7.56971 3.1216L10.25 3.51106C10.6601 3.57066 10.8238 4.07464 10.5271 4.36391L8.58763 6.25442C8.46978 6.36929 8.41601 6.53479 8.44383 6.69698L8.90167 9.36642C8.97173 9.77487 8.54301 10.0864 8.1762 9.89351L5.77889 8.63317C5.63323 8.55659 5.45921 8.55659 5.31355 8.63317L2.91625 9.89351C2.54943 10.0864 2.12072 9.77487 2.19077 9.36642L2.64862 6.69698C2.67644 6.53479 2.62266 6.36929 2.50482 6.25442L0.565359 4.36391C0.268601 4.07464 0.432355 3.57066 0.842465 3.51106L3.52273 3.1216C3.68559 3.09793 3.82637 2.99565 3.8992 2.84808L5.09785 0.419342ZM17.0979 0.419342C17.2813 0.0477196 17.8112 0.047719 17.9946 0.419342L19.1932 2.84808C19.2661 2.99565 19.4069 3.09793 19.5697 3.1216L22.25 3.51106C22.6601 3.57066 22.8238 4.07464 22.5271 4.36391L20.5876 6.25442C20.4698 6.36929 20.416 6.53479 20.4438 6.69698L20.9017 9.36642C20.9717 9.77487 20.543 10.0864 20.1762 9.89351L17.7789 8.63317C17.6332 8.55659 17.4592 8.55659 17.3136 8.63317L14.9162 9.89351C14.5494 10.0864 14.1207 9.77487 14.1908 9.36642L14.6486 6.69698C14.6764 6.53479 14.6227 6.36929 14.5048 6.25442L12.5654 4.36391C12.2686 4.07464 12.4324 3.57066 12.8425 3.51106L15.5227 3.1216C15.6856 3.09793 15.8264 2.99565 15.8992 2.84808L17.0979 0.419342ZM29.0979 0.419342C29.2813 0.0477196 29.8112 0.047719 29.9946 0.419342L31.1932 2.84808C31.2661 2.99565 31.4069 3.09793 31.5697 3.1216L34.25 3.51106C34.6601 3.57066 34.8238 4.07464 34.5271 4.36391L32.5876 6.25442C32.4698 6.36929 32.416 6.53479 32.4438 6.69698L32.9017 9.36642C32.9717 9.77487 32.543 10.0864 32.1762 9.89351L29.7789 8.63317C29.6332 8.55659 29.4592 8.55659 29.3136 8.63317L26.9162 9.89351C26.5494 10.0864 26.1207 9.77487 26.1908 9.36642L26.6486 6.69698C26.6764 6.53479 26.6227 6.36929 26.5048 6.25442L24.5654 4.36391C24.2686 4.07464 24.4324 3.57066 24.8425 3.51106L27.5227 3.1216C27.6856 3.09793 27.8264 2.99565 27.8992 2.84808L29.0979 0.419342ZM41.0979 0.419342C41.2813 0.0477196 41.8112 0.047719 41.9946 0.419342L43.1932 2.84808C43.2661 2.99565 43.4069 3.09793 43.5697 3.1216L46.25 3.51106C46.6601 3.57066 46.8238 4.07464 46.5271 4.36391L44.5876 6.25442C44.4698 6.36929 44.416 6.53479 44.4438 6.69698L44.9017 9.36642C44.9717 9.77487 44.543 10.0864 44.1762 9.89351L41.7789 8.63317C41.6332 8.55659 41.4592 8.55659 41.3136 8.63317L38.9162 9.89351C38.5494 10.0864 38.1207 9.77487 38.1908 9.36642L38.6486 6.69698C38.6764 6.53479 38.6227 6.36929 38.5048 6.25442L36.5654 4.36391C36.2686 4.07464 36.4324 3.57066 36.8425 3.51106L39.5227 3.1216C39.6856 3.09793 39.8264 2.99565 39.8992 2.84808L41.0979 0.419342ZM53.0979 0.419342C53.2813 0.0477196 53.8112 0.047719 53.9946 0.419342L55.1932 2.84808C55.2661 2.99565 55.4069 3.09793 55.5697 3.1216L58.25 3.51106C58.6601 3.57066 58.8238 4.07464 58.5271 4.36391L56.5876 6.25442C56.4698 6.36929 56.416 6.53479 56.4438 6.69698L56.9017 9.36642C56.9717 9.77487 56.543 10.0864 56.1762 9.89351L53.7789 8.63317C53.6332 8.55659 53.4592 8.55659 53.3136 8.63317L50.9162 9.89351C50.5494 10.0864 50.1207 9.77487 50.1908 9.36642L50.6486 6.69698C50.6764 6.53479 50.6227 6.36929 50.5048 6.25442L48.5654 4.36391C48.2686 4.07464 48.4324 3.57066 48.8425 3.51106L51.5227 3.1216C51.6856 3.09793 51.8264 2.99565 51.8992 2.84808L53.0979 0.419342Z" fill="#FFC700"/>
<path d="M5.09785 0.419342C5.28126 0.0477196 5.81118 0.047719 5.99459 0.419342L7.19324 2.84808C7.26607 2.99565 7.40686 3.09793 7.56971 3.1216L10.25 3.51106C10.6601 3.57066 10.8238 4.07464 10.5271 4.36391L8.58763 6.25442C8.46978 6.36929 8.41601 6.53479 8.44383 6.69698L8.90167 9.36642C8.97173 9.77487 8.54301 10.0864 8.1762 9.89351L5.77889 8.63317C5.63323 8.55659 5.45921 8.55659 5.31355 8.63317L2.91625 9.89351C2.54943 10.0864 2.12072 9.77487 2.19077 9.36642L2.64862 6.69698C2.67644 6.53479 2.62266 6.36929 2.50482 6.25442L0.565359 4.36391C0.268601 4.07464 0.432355 3.57066 0.842465 3.51106L3.52273 3.1216C3.68559 3.09793 3.82637 2.99565 3.8992 2.84808L5.09785 0.419342ZM17.0979 0.419342C17.2813 0.0477196 17.8112 0.047719 17.9946 0.419342L19.1932 2.84808C19.2661 2.99565 19.4069 3.09793 19.5697 3.1216L22.25 3.51106C22.6601 3.57066 22.8238 4.07464 22.5271 4.36391L20.5876 6.25442C20.4698 6.36929 20.416 6.53479 20.4438 6.69698L20.9017 9.36642C20.9717 9.77487 20.543 10.0864 20.1762 9.89351L17.7789 8.63317C17.6332 8.55659 17.4592 8.55659 17.3136 8.63317L14.9162 9.89351C14.5494 10.0864 14.1207 9.77487 14.1908 9.36642L14.6486 6.69698C14.6764 6.53479 14.6227 6.36929 14.5048 6.25442L12.5654 4.36391C12.2686 4.07464 12.4324 3.57066 12.8425 3.51106L15.5227 3.1216C15.6856 3.09793 15.8264 2.99565 15.8992 2.84808L17.0979 0.419342ZM29.0979 0.419342C29.2813 0.0477196 29.8112 0.047719 29.9946 0.419342L31.1932 2.84808C31.2661 2.99565 31.4069 3.09793 31.5697 3.1216L34.25 3.51106C34.6601 3.57066 34.8238 4.07464 34.5271 4.36391L32.5876 6.25442C32.4698 6.36929 32.416 6.53479 32.4438 6.69698L32.9017 9.36642C32.9717 9.77487 32.543 10.0864 32.1762 9.89351L29.7789 8.63317C29.6332 8.55659 29.4592 8.55659 29.3136 8.63317L26.9162 9.89351C26.5494 10.0864 26.1207 9.77487 26.1908 9.36642L26.6486 6.69698C26.6764 6.53479 26.6227 6.36929 26.5048 6.25442L24.5654 4.36391C24.2686 4.07464 24.4324 3.57066 24.8425 3.51106L27.5227 3.1216C27.6856 3.09793 27.8264 2.99565 27.8992 2.84808L29.0979 0.419342ZM41.0979 0.419342C41.2813 0.0477196 41.8112 0.047719 41.9946 0.419342L43.1932 2.84808C43.2661 2.99565 43.4069 3.09793 43.5697 3.1216L46.25 3.51106C46.6601 3.57066 46.8238 4.07464 46.5271 4.36391L44.5876 6.25442C44.4698 6.36929 44.416 6.53479 44.4438 6.69698L44.9017 9.36642C44.9717 9.77487 44.543 10.0864 44.1762 9.89351L41.7789 8.63317C41.6332 8.55659 41.4592 8.55659 41.3136 8.63317L38.9162 9.89351C38.5494 10.0864 38.1207 9.77487 38.1908 9.36642L38.6486 6.69698C38.6764 6.53479 38.6227 6.36929 38.5048 6.25442L36.5654 4.36391C36.2686 4.07464 36.4324 3.57066 36.8425 3.51106L39.5227 3.1216C39.6856 3.09793 39.8264 2.99565 39.8992 2.84808L41.0979 0.419342ZM53.0979 0.419342C53.2813 0.0477196 53.8112 0.047719 53.9946 0.419342L55.1932 2.84808C55.2661 2.99565 55.4069 3.09793 55.5697 3.1216L58.25 3.51106C58.6601 3.57066 58.8238 4.07464 58.5271 4.36391L56.5876 6.25442C56.4698 6.36929 56.416 6.53479 56.4438 6.69698L56.9017 9.36642C56.9717 9.77487 56.543 10.0864 56.1762 9.89351L53.7789 8.63317C53.6332 8.55659 53.4592 8.55659 53.3136 8.63317L50.9162 9.89351C50.5494 10.0864 50.1207 9.77487 50.1908 9.36642L50.6486 6.69698C50.6764 6.53479 50.6227 6.36929 50.5048 6.25442L48.5654 4.36391C48.2686 4.07464 48.4324 3.57066 48.8425 3.51106L51.5227 3.1216C51.6856 3.09793 51.8264 2.99565 51.8992 2.84808L53.0979 0.419342Z" fill="#FFC700"/>
<path d="M5.09785 0.419342C5.28126 0.0477196 5.81118 0.047719 5.99459 0.419342L7.19324 2.84808C7.26607 2.99565 7.40686 3.09793 7.56971 3.1216L10.25 3.51106C10.6601 3.57066 10.8238 4.07464 10.5271 4.36391L8.58763 6.25442C8.46978 6.36929 8.41601 6.53479 8.44383 6.69698L8.90167 9.36642C8.97173 9.77487 8.54301 10.0864 8.1762 9.89351L5.77889 8.63317C5.63323 8.55659 5.45921 8.55659 5.31355 8.63317L2.91625 9.89351C2.54943 10.0864 2.12072 9.77487 2.19077 9.36642L2.64862 6.69698C2.67644 6.53479 2.62266 6.36929 2.50482 6.25442L0.565359 4.36391C0.268601 4.07464 0.432355 3.57066 0.842465 3.51106L3.52273 3.1216C3.68559 3.09793 3.82637 2.99565 3.8992 2.84808L5.09785 0.419342ZM17.0979 0.419342C17.2813 0.0477196 17.8112 0.047719 17.9946 0.419342L19.1932 2.84808C19.2661 2.99565 19.4069 3.09793 19.5697 3.1216L22.25 3.51106C22.6601 3.57066 22.8238 4.07464 22.5271 4.36391L20.5876 6.25442C20.4698 6.36929 20.416 6.53479 20.4438 6.69698L20.9017 9.36642C20.9717 9.77487 20.543 10.0864 20.1762 9.89351L17.7789 8.63317C17.6332 8.55659 17.4592 8.55659 17.3136 8.63317L14.9162 9.89351C14.5494 10.0864 14.1207 9.77487 14.1908 9.36642L14.6486 6.69698C14.6764 6.53479 14.6227 6.36929 14.5048 6.25442L12.5654 4.36391C12.2686 4.07464 12.4324 3.57066 12.8425 3.51106L15.5227 3.1216C15.6856 3.09793 15.8264 2.99565 15.8992 2.84808L17.0979 0.419342ZM29.0979 0.419342C29.2813 0.0477196 29.8112 0.047719 29.9946 0.419342L31.1932 2.84808C31.2661 2.99565 31.4069 3.09793 31.5697 3.1216L34.25 3.51106C34.6601 3.57066 34.8238 4.07464 34.5271 4.36391L32.5876 6.25442C32.4698 6.36929 32.416 6.53479 32.4438 6.69698L32.9017 9.36642C32.9717 9.77487 32.543 10.0864 32.1762 9.89351L29.7789 8.63317C29.6332 8.55659 29.4592 8.55659 29.3136 8.63317L26.9162 9.89351C26.5494 10.0864 26.1207 9.77487 26.1908 9.36642L26.6486 6.69698C26.6764 6.53479 26.6227 6.36929 26.5048 6.25442L24.5654 4.36391C24.2686 4.07464 24.4324 3.57066 24.8425 3.51106L27.5227 3.1216C27.6856 3.09793 27.8264 2.99565 27.8992 2.84808L29.0979 0.419342ZM41.0979 0.419342C41.2813 0.0477196 41.8112 0.047719 41.9946 0.419342L43.1932 2.84808C43.2661 2.99565 43.4069 3.09793 43.5697 3.1216L46.25 3.51106C46.6601 3.57066 46.8238 4.07464 46.5271 4.36391L44.5876 6.25442C44.4698 6.36929 44.416 6.53479 44.4438 6.69698L44.9017 9.36642C44.9717 9.77487 44.543 10.0864 44.1762 9.89351L41.7789 8.63317C41.6332 8.55659 41.4592 8.55659 41.3136 8.63317L38.9162 9.89351C38.5494 10.0864 38.1207 9.77487 38.1908 9.36642L38.6486 6.69698C38.6764 6.53479 38.6227 6.36929 38.5048 6.25442L36.5654 4.36391C36.2686 4.07464 36.4324 3.57066 36.8425 3.51106L39.5227 3.1216C39.6856 3.09793 39.8264 2.99565 39.8992 2.84808L41.0979 0.419342ZM53.0979 0.419342C53.2813 0.0477196 53.8112 0.047719 53.9946 0.419342L55.1932 2.84808C55.2661 2.99565 55.4069 3.09793 55.5697 3.1216L58.25 3.51106C58.6601 3.57066 58.8238 4.07464 58.5271 4.36391L56.5876 6.25442C56.4698 6.36929 56.416 6.53479 56.4438 6.69698L56.9017 9.36642C56.9717 9.77487 56.543 10.0864 56.1762 9.89351L53.7789 8.63317C53.6332 8.55659 53.4592 8.55659 53.3136 8.63317L50.9162 9.89351C50.5494 10.0864 50.1207 9.77487 50.1908 9.36642L50.6486 6.69698C50.6764 6.53479 50.6227 6.36929 50.5048 6.25442L48.5654 4.36391C48.2686 4.07464 48.4324 3.57066 48.8425 3.51106L51.5227 3.1216C51.6856 3.09793 51.8264 2.99565 51.8992 2.84808L53.0979 0.419342Z" fill="#FFC700"/>
<path d="M5.09785 0.419342C5.28126 0.0477196 5.81118 0.047719 5.99459 0.419342L7.19324 2.84808C7.26607 2.99565 7.40686 3.09793 7.56971 3.1216L10.25 3.51106C10.6601 3.57066 10.8238 4.07464 10.5271 4.36391L8.58763 6.25442C8.46978 6.36929 8.41601 6.53479 8.44383 6.69698L8.90167 9.36642C8.97173 9.77487 8.54301 10.0864 8.1762 9.89351L5.77889 8.63317C5.63323 8.55659 5.45921 8.55659 5.31355 8.63317L2.91625 9.89351C2.54943 10.0864 2.12072 9.77487 2.19077 9.36642L2.64862 6.69698C2.67644 6.53479 2.62266 6.36929 2.50482 6.25442L0.565359 4.36391C0.268601 4.07464 0.432355 3.57066 0.842465 3.51106L3.52273 3.1216C3.68559 3.09793 3.82637 2.99565 3.8992 2.84808L5.09785 0.419342ZM17.0979 0.419342C17.2813 0.0477196 17.8112 0.047719 17.9946 0.419342L19.1932 2.84808C19.2661 2.99565 19.4069 3.09793 19.5697 3.1216L22.25 3.51106C22.6601 3.57066 22.8238 4.07464 22.5271 4.36391L20.5876 6.25442C20.4698 6.36929 20.416 6.53479 20.4438 6.69698L20.9017 9.36642C20.9717 9.77487 20.543 10.0864 20.1762 9.89351L17.7789 8.63317C17.6332 8.55659 17.4592 8.55659 17.3136 8.63317L14.9162 9.89351C14.5494 10.0864 14.1207 9.77487 14.1908 9.36642L14.6486 6.69698C14.6764 6.53479 14.6227 6.36929 14.5048 6.25442L12.5654 4.36391C12.2686 4.07464 12.4324 3.57066 12.8425 3.51106L15.5227 3.1216C15.6856 3.09793 15.8264 2.99565 15.8992 2.84808L17.0979 0.419342ZM29.0979 0.419342C29.2813 0.0477196 29.8112 0.047719 29.9946 0.419342L31.1932 2.84808C31.2661 2.99565 31.4069 3.09793 31.5697 3.1216L34.25 3.51106C34.6601 3.57066 34.8238 4.07464 34.5271 4.36391L32.5876 6.25442C32.4698 6.36929 32.416 6.53479 32.4438 6.69698L32.9017 9.36642C32.9717 9.77487 32.543 10.0864 32.1762 9.89351L29.7789 8.63317C29.6332 8.55659 29.4592 8.55659 29.3136 8.63317L26.9162 9.89351C26.5494 10.0864 26.1207 9.77487 26.1908 9.36642L26.6486 6.69698C26.6764 6.53479 26.6227 6.36929 26.5048 6.25442L24.5654 4.36391C24.2686 4.07464 24.4324 3.57066 24.8425 3.51106L27.5227 3.1216C27.6856 3.09793 27.8264 2.99565 27.8992 2.84808L29.0979 0.419342ZM41.0979 0.419342C41.2813 0.0477196 41.8112 0.047719 41.9946 0.419342L43.1932 2.84808C43.2661 2.99565 43.4069 3.09793 43.5697 3.1216L46.25 3.51106C46.6601 3.57066 46.8238 4.07464 46.5271 4.36391L44.5876 6.25442C44.4698 6.36929 44.416 6.53479 44.4438 6.69698L44.9017 9.36642C44.9717 9.77487 44.543 10.0864 44.1762 9.89351L41.7789 8.63317C41.6332 8.55659 41.4592 8.55659 41.3136 8.63317L38.9162 9.89351C38.5494 10.0864 38.1207 9.77487 38.1908 9.36642L38.6486 6.69698C38.6764 6.53479 38.6227 6.36929 38.5048 6.25442L36.5654 4.36391C36.2686 4.07464 36.4324 3.57066 36.8425 3.51106L39.5227 3.1216C39.6856 3.09793 39.8264 2.99565 39.8992 2.84808L41.0979 0.419342ZM53.0979 0.419342C53.2813 0.0477196 53.8112 0.047719 53.9946 0.419342L55.1932 2.84808C55.2661 2.99565 55.4069 3.09793 55.5697 3.1216L58.25 3.51106C58.6601 3.57066 58.8238 4.07464 58.5271 4.36391L56.5876 6.25442C56.4698 6.36929 56.416 6.53479 56.4438 6.69698L56.9017 9.36642C56.9717 9.77487 56.543 10.0864 56.1762 9.89351L53.7789 8.63317C53.6332 8.55659 53.4592 8.55659 53.3136 8.63317L50.9162 9.89351C50.5494 10.0864 50.1207 9.77487 50.1908 9.36642L50.6486 6.69698C50.6764 6.53479 50.6227 6.36929 50.5048 6.25442L48.5654 4.36391C48.2686 4.07464 48.4324 3.57066 48.8425 3.51106L51.5227 3.1216C51.6856 3.09793 51.8264 2.99565 51.8992 2.84808L53.0979 0.419342Z" fill="#FFC700"/>
<path d="M5.09785 0.419342C5.28126 0.0477196 5.81118 0.047719 5.99459 0.419342L7.19324 2.84808C7.26607 2.99565 7.40686 3.09793 7.56971 3.1216L10.25 3.51106C10.6601 3.57066 10.8238 4.07464 10.5271 4.36391L8.58763 6.25442C8.46978 6.36929 8.41601 6.53479 8.44383 6.69698L8.90167 9.36642C8.97173 9.77487 8.54301 10.0864 8.1762 9.89351L5.77889 8.63317C5.63323 8.55659 5.45921 8.55659 5.31355 8.63317L2.91625 9.89351C2.54943 10.0864 2.12072 9.77487 2.19077 9.36642L2.64862 6.69698C2.67644 6.53479 2.62266 6.36929 2.50482 6.25442L0.565359 4.36391C0.268601 4.07464 0.432355 3.57066 0.842465 3.51106L3.52273 3.1216C3.68559 3.09793 3.82637 2.99565 3.8992 2.84808L5.09785 0.419342ZM17.0979 0.419342C17.2813 0.0477196 17.8112 0.047719 17.9946 0.419342L19.1932 2.84808C19.2661 2.99565 19.4069 3.09793 19.5697 3.1216L22.25 3.51106C22.6601 3.57066 22.8238 4.07464 22.5271 4.36391L20.5876 6.25442C20.4698 6.36929 20.416 6.53479 20.4438 6.69698L20.9017 9.36642C20.9717 9.77487 20.543 10.0864 20.1762 9.89351L17.7789 8.63317C17.6332 8.55659 17.4592 8.55659 17.3136 8.63317L14.9162 9.89351C14.5494 10.0864 14.1207 9.77487 14.1908 9.36642L14.6486 6.69698C14.6764 6.53479 14.6227 6.36929 14.5048 6.25442L12.5654 4.36391C12.2686 4.07464 12.4324 3.57066 12.8425 3.51106L15.5227 3.1216C15.6856 3.09793 15.8264 2.99565 15.8992 2.84808L17.0979 0.419342ZM29.0979 0.419342C29.2813 0.0477196 29.8112 0.047719 29.9946 0.419342L31.1932 2.84808C31.2661 2.99565 31.4069 3.09793 31.5697 3.1216L34.25 3.51106C34.6601 3.57066 34.8238 4.07464 34.5271 4.36391L32.5876 6.25442C32.4698 6.36929 32.416 6.53479 32.4438 6.69698L32.9017 9.36642C32.9717 9.77487 32.543 10.0864 32.1762 9.89351L29.7789 8.63317C29.6332 8.55659 29.4592 8.55659 29.3136 8.63317L26.9162 9.89351C26.5494 10.0864 26.1207 9.77487 26.1908 9.36642L26.6486 6.69698C26.6764 6.53479 26.6227 6.36929 26.5048 6.25442L24.5654 4.36391C24.2686 4.07464 24.4324 3.57066 24.8425 3.51106L27.5227 3.1216C27.6856 3.09793 27.8264 2.99565 27.8992 2.84808L29.0979 0.419342ZM41.0979 0.419342C41.2813 0.0477196 41.8112 0.047719 41.9946 0.419342L43.1932 2.84808C43.2661 2.99565 43.4069 3.09793 43.5697 3.1216L46.25 3.51106C46.6601 3.57066 46.8238 4.07464 46.5271 4.36391L44.5876 6.25442C44.4698 6.36929 44.416 6.53479 44.4438 6.69698L44.9017 9.36642C44.9717 9.77487 44.543 10.0864 44.1762 9.89351L41.7789 8.63317C41.6332 8.55659 41.4592 8.55659 41.3136 8.63317L38.9162 9.89351C38.5494 10.0864 38.1207 9.77487 38.1908 9.36642L38.6486 6.69698C38.6764 6.53479 38.6227 6.36929 38.5048 6.25442L36.5654 4.36391C36.2686 4.07464 36.4324 3.57066 36.8425 3.51106L39.5227 3.1216C39.6856 3.09793 39.8264 2.99565 39.8992 2.84808L41.0979 0.419342ZM53.0979 0.419342C53.2813 0.0477196 53.8112 0.047719 53.9946 0.419342L55.1932 2.84808C55.2661 2.99565 55.4069 3.09793 55.5697 3.1216L58.25 3.51106C58.6601 3.57066 58.8238 4.07464 58.5271 4.36391L56.5876 6.25442C56.4698 6.36929 56.416 6.53479 56.4438 6.69698L56.9017 9.36642C56.9717 9.77487 56.543 10.0864 56.1762 9.89351L53.7789 8.63317C53.6332 8.55659 53.4592 8.55659 53.3136 8.63317L50.9162 9.89351C50.5494 10.0864 50.1207 9.77487 50.1908 9.36642L50.6486 6.69698C50.6764 6.53479 50.6227 6.36929 50.5048 6.25442L48.5654 4.36391C48.2686 4.07464 48.4324 3.57066 48.8425 3.51106L51.5227 3.1216C51.6856 3.09793 51.8264 2.99565 51.8992 2.84808L53.0979 0.419342Z" fill="#FFC700"/>
</svg>
