<svg width="20" height="20" viewBox="0 0 20 20" fill="none" xmlns="http://www.w3.org/2000/svg">
<path fill-rule="evenodd" clip-rule="evenodd" d="M14.1355 14.9974C12.815 16.1216 11.1033 16.8001 9.23317 16.8001C5.05422 16.8001 1.6665 13.4124 1.6665 9.23341C1.6665 5.05446 5.05422 1.66675 9.23317 1.66675C13.4121 1.66675 16.7998 5.05446 16.7998 9.23341C16.7998 11.0922 16.1296 12.7945 15.0175 14.1117L18.6495 17.7437L17.7657 18.6276L14.1355 14.9974ZM15.5498 9.23341C15.5498 12.722 12.7218 15.5501 9.23317 15.5501C5.74457 15.5501 2.9165 12.722 2.9165 9.23341C2.9165 5.74482 5.74457 2.91675 9.23317 2.91675C12.7218 2.91675 15.5498 5.74482 15.5498 9.23341Z" fill="black" fill-opacity="0.7"/>
</svg>
